<svg width="17" height="16" viewBox="0 0 17 16" fill="none" xmlns="http://www.w3.org/2000/svg">
<g clip-path="url(#clip0_23_68)">
<path d="M15.3986 1.99987C14.7602 2.45019 14.0534 2.79461 13.3053 3.01987C12.9038 2.55821 12.3702 2.231 11.7767 2.08249C11.1831 1.93397 10.5583 1.97133 9.9867 2.1895C9.41509 2.40768 8.92427 2.79614 8.58063 3.30235C8.23699 3.80856 8.05711 4.40809 8.06531 5.01987V5.68653C6.89373 5.71691 5.73283 5.45708 4.68599 4.93017C3.63914 4.40325 2.73886 3.62562 2.06531 2.66653C2.06531 2.66653 -0.601354 8.66653 5.39865 11.3332C4.02566 12.2652 2.39008 12.7325 0.731979 12.6665C6.73198 15.9999 14.0653 12.6665 14.0653 4.99987C14.0647 4.81417 14.0468 4.62893 14.012 4.44653C14.6924 3.77553 15.1725 2.92834 15.3986 1.99987V1.99987Z" stroke="#06942A" stroke-width="1.2" stroke-linecap="round" stroke-linejoin="round"/>
</g>
<defs>
<clipPath id="clip0_23_68">
<rect width="16" height="16" fill="white" transform="translate(0.0653076)"/>
</clipPath>
</defs>
</svg>
